 http://www.imdb.com/title/tt1298649/
General
Complete name : The.Watch.2012.BRRip.Ac3.Xvid.ANALOGT.W.2012.BRR.ANALOG.avi
Format : AVI
Format/Info : Audio Video Interleave
File size : 1.53 GiB
Duration : 1h 41mn
Overall bit rate : 2 143 Kbps

Video
ID : 0
Format : MPEG-4 Visual
Format profile : Advanced Simple@L5
Format settings, BVOP : 2
Format settings, QPel : No
Format settings, GMC : No warppoints
Format settings, Matrix : Default (MPEG)
Muxing mode : Packed bitstream
Codec ID : XVID
Codec ID/Hint : XviD
Duration : 1h 41mn
Bit rate : 1 751 Kbps
Width : 720 pixels
Height : 304 pixels
Display aspect ratio : 2.35:1
Frame rate : 23.976 fps
Color space : YUV
Chroma subsampling : 4:2:0
Bit depth : 8 bits
Scan type : Progressive
Compression mode : Lossy
Bits/(Pixel*Frame) : 0.334
Stream size : 1.25 GiB (82%)
Writing library : XviD 1.2.1 (UTC 2008-12-04)

Audio
ID : 1
Format : AC-3
Format/Info : Audio Coding 3
Mode extension : CM (complete main)
Format settings, Endianness : Big
Codec ID : 2000
Duration : 1h 41mn
Bit rate mode : Constant
Bit rate : 384 Kbps
Channel(s) : 6 channels
Channel positions : Front: L C R, Side: L R, LFE
Sampling rate : 48.0 KHz
Bit depth : 16 bits
Compression mode : Lossy
Stream size : 280 MiB (18%)
Alignment : Aligned on interleaves
Interleave, duration : 64 ms (1.53 video frames)
Interleave, preload duration : 192 ms
Title : the.track_2_English_ANALOG
Sample : Yes
Subs : English(hard.of.hearing)
Source : 720p.SPARKS THANX
 
http://old.rapidimg.org/images/S5He.jpg 
http://old.rapidimg.org/images/Ik4aN.jpg 
http://old.rapidimg.org/images/wmsNo.jpg 
http://old.rapidimg.org/images/beEDZ.jpg 
http://old.rapidimg.org/images/nIjaP.jpg